<?xml version="1.0" standalone="no"?>
<!DOCTYPE svg PUBLIC "-//W3C//DTD SVG 20010904//EN"
 "http://www.w3.org/TR/2001/REC-SVG-20010904/DTD/svg10.dtd">
<svg version="1.0" xmlns="http://www.w3.org/2000/svg"
 width="640.000000pt" height="640.000000pt" viewBox="0 0 640.000000 640.000000"
 preserveAspectRatio="xMidYMid meet">
<metadata>
Created by potrace 1.14, written by Peter Selinger 2001-2017
</metadata>
<g transform="translate(0.000000,640.000000) scale(0.100000,-0.100000)"
fill="#000000" stroke="none">
<path d="M2188 5375 c-2 -2 -17 -5 -34 -8 -17 -3 -49 -12 -70 -22 -69 -30
-169 -79 -174 -86 -3 -3 -16 -10 -30 -14 -41 -12 -50 -25 -49 -69 1 -26 -10
-64 -29 -106 -45 -98 -75 -200 -87 -300 -7 -51 -7 -197 0 -240 6 -42 3 -49
-34 -100 -22 -30 -44 -59 -48 -65 -28 -34 -253 -410 -253 -422 0 -2 -11 -19
-24 -36 -31 -42 -66 -112 -66 -133 0 -9 -24 -77 -52 -152 -48 -123 -59 -141
-112 -196 -79 -82 -196 -221 -233 -276 -16 -25 -58 -94 -93 -155 -34 -60 -67
-113 -73 -116 -16 -11 1 -57 23 -64 11 -3 23 -18 26 -32 6 -22 10 -24 43 -18
66 13 89 13 121 -3 23 -11 34 -12 43 -3 17 17 29 13 23 -6 -3 -10 -10 -56 -16
-103 -34 -257 -34 -593 -1 -717 5 -17 7 -34 5 -36 -3 -2 3 -35 12 -73 9 -38
18 -80 19 -94 2 -14 15 -51 29 -83 14 -31 26 -58 25 -60 0 -1 4 -15 10 -30 6
-16 11 -30 11 -32 0 -7 94 -199 102 -210 4 -5 39 -58 78 -116 53 -81 73 -121
85 -173 17 -71 35 -124 65 -191 35 -78 41 -107 26 -124 -8 -9 -36 -38 -62 -66
-70 -75 -111 -174 -86 -211 11 -17 47 -33 89 -40 21 -3 42 -8 46 -11 5 -3 70
-7 145 -9 202 -5 304 24 397 116 22 21 46 39 53 40 7 0 11 4 8 9 -7 10 19 64
37 79 11 9 32 15 96 27 103 19 612 28 701 12 122 -23 237 -30 460 -31 189 0
338 6 400 18 14 2 52 7 85 11 33 3 69 7 80 8 11 1 19 -3 18 -9 -9 -48 -10
-130 -2 -153 16 -44 132 -85 309 -107 34 -4 120 -15 155 -20 94 -12 255 -12
304 1 87 23 92 35 50 122 -22 46 -93 109 -161 144 -21 11 -38 22 -38 24 0 3
19 41 41 85 33 63 51 86 88 110 64 42 90 61 130 95 56 47 159 156 189 200 15
22 29 42 32 45 10 10 44 65 78 130 19 36 43 77 54 92 10 14 18 35 18 46 0 11
7 36 15 55 56 134 129 468 151 692 7 75 12 106 16 110 2 2 35 6 73 10 39 4 83
8 98 10 15 1 31 5 34 9 16 16 -36 233 -83 346 -26 62 -87 184 -112 224 -23 36
-31 78 -48 221 -3 33 -8 69 -10 80 -2 11 -7 40 -9 65 -3 25 -8 52 -10 60 -3 8
-7 32 -10 52 -4 21 -16 80 -29 132 l-23 95 28 63 c15 35 35 105 44 156 11 63
23 101 36 115 12 13 18 30 15 42 -3 11 -6 26 -6 32 0 7 -15 30 -34 51 -19 21
-44 63 -56 93 -12 29 -37 84 -55 121 -30 59 -33 70 -23 98 6 19 9 73 6 138 -5
88 -11 119 -35 177 -62 150 -162 256 -266 282 -48 12 -213 9 -276 -4 -36 -8
-71 -16 -78 -17 -7 -1 -16 -5 -19 -9 -4 -4 -13 -7 -20 -7 -21 0 -127 -51 -150
-72 -21 -19 -22 -19 -80 7 -33 15 -102 43 -154 62 -103 38 -100 37 -148 48
-32 8 -32 8 -26 56 8 60 -1 62 -87 18 -65 -32 -65 -32 -114 16 -55 55 -183
129 -245 142 -32 6 -33 5 -26 -23 4 -16 9 -37 12 -47 5 -16 1 -18 -32 -13 -20
4 -47 9 -60 12 -19 5 -24 1 -30 -20 -5 -21 -12 -26 -38 -26 -186 -3 -391 -19
-486 -39 -34 -7 -37 -5 -99 62 -96 102 -226 183 -349 217 -39 10 -177 21 -184
15z"/>
</g>
</svg>
